<?xml version="1.0" encoding="utf-8"?>
<!-- Generator: Adobe Illustrator 19.0.0, SVG Export Plug-In . SVG Version: 6.00 Build 0)  -->
<svg version="1.1" id="Layer_1" xmlns="http://www.w3.org/2000/svg" xmlns:xlink="http://www.w3.org/1999/xlink" x="0px" y="0px"
	 viewBox="0 0 288 288" style="enable-background:new 0 0 288 288;" xml:space="preserve">
<style type="text/css">
	.st0{fill:#FFFFFF;}
</style>
<g id="XMLID_3075_">
	<g id="XMLID_3077_">
		<path id="XMLID_3_" class="st0" d="M117.5,235.4c-30.5,0-61-11.1-83.2-34.7c-45.7-45.7-45.7-120.6,0-166.4s120.6-45.7,166.4,0l0,0
			l0,0c22.2,22.2,34.7,51.3,34.7,83.2s-12.5,61-34.7,83.2C177.1,224.3,148,235.4,117.5,235.4z M117.5,27.5
			c-23.6,0-45.7,8.3-63.8,26.3C19,88.5,19,146.7,53.7,181.3s92.9,34.7,127.5,0c16.6-16.6,26.3-40.2,26.3-63.8s-9.7-47.1-26.3-63.8
			l0,0C163.2,35.8,141.1,27.5,117.5,27.5z"/>
	</g>
	<g id="XMLID_3076_">
		<path id="XMLID_6_" class="st0" d="M274.1,288.1c-4.2,0-6.9-1.4-9.7-4.2l-79-79c-5.5-5.5-5.5-13.9,0-19.4s13.9-5.5,19.4,0l79,79
			c5.5,5.5,5.5,13.9,0,19.4C281.1,286.7,278.3,288.1,274.1,288.1z"/>
	</g>
</g>
</svg>
